<svg id="Layer_1" data-name="Layer 1" xmlns="http://www.w3.org/2000/svg" viewBox="0 0 1292.76 523.9"><defs><style>.cls-1{fill:#005a95;}.cls-2{fill:#ec1c24;}.cls-3{fill:#eb1d25;}.cls-4{fill:#02acec;}</style></defs><path className="cls-1" d="M1092.11,336.19h-120c-7.11,0-7.46-.34-7.46-7.28V180.46c0-6.81,1.41-8.27,8-8.27h32c6.42,0,8,1.52,8,7.83,0,36.82.08,73.64-.09,110.46,0,4.44.94,5.92,5.67,5.83,16.82-.31,33.65-.23,50.48,0,3.83,0,5.11-.85,5-4.92-.24-16.82-.11-33.65-.1-50.48,0-6,1.64-7.68,7.62-7.68,11.5,0,23,.09,34.49-.05,4.26,0,6,1.62,5.94,5.9-.12,17.49.06,35-.13,52.48,0,3.7.9,4.82,4.7,4.76q20.73-.34,41.48,0c3.91.07,5-1,5-5-.15-37.32-.09-74.64-.09-112,0-6.68.47-7.16,7.07-7.17q16.74,0,33.49,0c5.66,0,7.43,1.76,7.43,7.36q0,74.47,0,149c0,6-1.64,7.68-7.62,7.68Z" transform="translate(-102.62 -165.46)"/><path className="cls-2" d="M473.46,410.77A157.39,157.39,0,0,0,469.9,383c-7.52-31.6-26-56.19-50.54-76.72-21.38-17.87-45.85-30-71.88-39.31-19.86-7.13-40.31-11.87-61-15.76-9-1.69-18.09-2.76-27.16-4-1-.14-2.78-.57-2.51,1.31,1,7.17,1.37,14.38,1.93,21.58,1,13.26,2.76,26.46,3.69,39.73.24,3.35,1.43,4.77,4.24,5.19,14.76,2.24,28.88,6.79,42.71,12.17,30.92,12,58.47,28.94,78.75,56,15.28,20.37,22.85,43.58,24.39,68.77,1.2,19.71-2,39-7.15,58-1.75,6.45-2.94,13.29-6.39,19.08a1.14,1.14,0,0,0-.09.16,5.35,5.35,0,0,1-.42,1.58h0v0c-.12.5-.32.56-.54,1.16a8,8,0,0,0-.35,1.24c-.16.44-.32.91-.47,1.41s-.26.92-.36,1.35a12.17,12.17,0,0,0-.52,1.36,11.68,11.68,0,0,0-.32,1.22c-.53,1.29-1,2.33-1.27,3-.19.44-.57,1.45-1.35,3.47-.44,1.16-.62,1.63-.39,1.86s1,.06,2.52-.23a24,24,0,0,1,2.53-.34,3,3,0,0,1,1.57-.33,5.13,5.13,0,0,1,.9-.13c.39-.07.78-.14,1.18-.18l.47-.17a7.59,7.59,0,0,1,1.26-.25,4.44,4.44,0,0,1,1-.26c.86-.36,2.18-.92,3.78-1.63,0,0,15.26-6.83,27.13-15.49,17.1-12.49,35.75-48.2,38.23-83.48A276.31,276.31,0,0,0,473.46,410.77Z" transform="translate(-102.62 -165.46)"/><path className="cls-1" d="M639.62,369.19h-93c-6.35,0-6.93-.57-6.93-6.8,0-14.5-.43-29,.1-43.49.74-20,7.17-38.15,21.48-52.65,9.1-9.21,21.09-13.22,33.42-16a88.55,88.55,0,0,1,22.63-2.14c2.17.08,3.1.68,3.79,2.8,3.07,9.37,6.44,18.64,9.58,28,2.24,6.65.32,9.15-6.53,9.32-9.38.22-18.66,1.87-25.86,8.1-9,7.83-10.82,18.82-10.63,30.24.06,3.76,2.81,2.58,4.66,2.58q37.24.09,74.49,0c7.33,0,14.67-.14,22,.07,3.12.09,3.95-.95,3.93-4-.14-15,.3-30-.15-45-.68-22.74,15.55-40,35.72-45.07A68.23,68.23,0,0,1,746,233.14c16.83.19,33.66.06,50.49.07,6.78,0,7.24.44,7.24,7q0,44.49,0,89c0,6.43-.54,7-6.73,7q-17.25,0-34.49,0c-6.21,0-6.77-.58-6.77-7,0-17-.09-34,.07-51,0-3.67-.57-5.33-4.81-5.15-7.82.33-10.26,2.49-10.26,10.4V361c0,6.08-2.1,8.22-8.09,8.22Q686.12,369.18,639.62,369.19Z" transform="translate(-102.62 -165.46)"/><path className="cls-2" d="M681.61,569.66a232.79,232.79,0,0,1-35.13,27.26c-17.08,10.56-35,19.06-55.07,22.21-12.36,1.94-24.52,1.33-36.42-2.93-13.17-4.71-22.86-18.81-23.42-32.75-.59-14.56,1.45-28.32,10.19-40.27,12.43-17,28.88-27.86,50-31,10.5-1.56,21-2.34,31.31,1.09,5.05,1.68,10,3.81,13.16,8.78a23.93,23.93,0,0,1-2.79,29c-11.94,12.65-27.18,19-43.58,23.2-9.58,2.47-19.39,3.15-29.19,3.91-2.48.19-3,1-3,3.26.15,12,9.93,21.73,22.06,22.9,21.21,2.05,39.26-6.26,56.75-16.5,17.69-10.36,32.13-24.64,46.38-39.14,5.87-6,7.44-13.45,9.2-21.1q6.15-26.67,12.79-53.23c.74-2.95.88-3.09-2.34-2.61a37.67,37.67,0,0,1-23.36-3.82c-6.71-3.5-8.27-9.7-7.19-17.38,20.66,8.36,41.38,9,62.81-1.07-3.1,12.8-6,24.43-8.73,36.09C718.91,516,711.74,546.45,705,577c-1.07,4.79-2.19,9.84-.39,15.07s5.28,8.7,10.77,9.16c9.56.8,17.81-2.55,25.07-8.31,13.54-10.74,23.36-24.9,34.45-37.91,9.14-10.72,10.14-24.52,15.24-36.74,1.36-3.27-1.77-2-2.85-2-11.69-.2-23.39-.46-35,3.09,3.69-9.35,11.15-16.14,21.27-16.16,5.83,0,11.67-.17,17.5.06,3.28.13,4.84-.69,5.86-4.18a64.09,64.09,0,0,1,7.28-16c5.17-8.27,13.26-10.77,22.07-11.82,4.11-.49,8.32-.08,13.35-.08-7.94,10-13.73,20.53-18.8,32.36,28.8-1.88,57.21,2.51,85.35-3.19-3.4,11.89-6.69,15.55-19.6,15.74-22.16.32-44.33.15-66.5,0-3.24,0-4.85.65-6.06,4.1-4.67,13.23-9.06,26.56-11.82,40.29-1.79,8.91-3.8,18-1.6,27.32,1.62,6.9,7.91,13.2,15.08,13.32,16.1.28,28.59-6.92,38.7-19,.79-.94,1-3,2.45-2.71s2.33,1.85,3,3.52c1.94,4.87,1,9.3-2.33,12.81a79.42,79.42,0,0,1-43.83,23.52c-11.56,2.18-21.66-.13-29.74-8.57a32.79,32.79,0,0,1-9.28-22.15c-.11-3.52-1.39-7,1-11.75-7.59,7.57-13.86,14.24-20.57,20.43-11.78,10.88-24.58,20.54-41,22.59-17.15,2.14-32.78-7.29-34.26-27.26A66.87,66.87,0,0,1,681.61,569.66Zm-122.94-2.91c11.18,2,31.83-4.39,42.6-11.72,6.86-4.66,12.74-10.26,15-18.8A11.49,11.49,0,0,0,609,522.15c-6.76-2.39-13-.38-18.94,2.4C572.05,532.94,563.46,548.39,558.67,566.75Z" transform="translate(-102.62 -165.46)"/><path className="cls-2" d="M1149.37,565.38a227.52,227.52,0,0,1-18.73,29.07c-8.93,11.79-19.29,21.44-34.65,24.19-3.86.69-7.58.07-12.08.78,3.55-10.63,3.27-21.15,2.65-31.54a132.61,132.61,0,0,0-5.23-31.12c-3.11,4.71-6.92,7.88-10.19,11.55-14.7,16.47-31.6,30.1-51.67,39.4-9.7,4.5-20,7.29-30.87,3.93-9.38-2.89-14.66-12.28-16-22.71a115.39,115.39,0,0,1-.47-26.36c-3.8,5.14-7.47,10.39-11.43,15.41-13.18,16.72-28.31,31.18-48.44,39.23-9.93,4-19.95,4.71-29.42-1.94-6.83-4.8-9.82-11.83-11.05-19.51-2.78-17.33.94-33.54,10.28-48.31,12.24-19.34,29.33-32.5,52.14-36,14.55-2.2,29.24.09,43,6,2.89,1.24,4.67,1.54,7.23-1.24,3.26-3.54,8.33-4.47,13-4.94s9.22-.1,14.84-.1c-7.67,10.92-10.45,22.79-13,34.72-2.69,12.8-3.94,25.71-1.63,38.72,1.33,7.5,7.72,11,15.19,8.91,12-3.4,21.55-10.79,31.06-18.25,10-7.81,18.26-17.41,27.28-26.23,6.5-6.36,6.29-6.36,3-14.89A69.08,69.08,0,0,0,1061,512c-2.87-3.12.47-3.29,1.8-3.72,18.45-5.92,26.16-3.87,34.73,17.05,6.59,16.07,9.64,33.17,11.28,50.5.59,6.2,1.82,12.34,2.06,19.47a93.84,93.84,0,0,0,12.43-14.3c10.46-14,20.54-28.31,25.67-45.39,1-3.32,2.1-6.59,1.73-10.09-.23-2.15.46-3.18,2.68-3.74,6.17-1.53,12.29-3,18.72-1.62,3.11.69,4.84,2,4.7,5.7-.33,8.92-3,17.38-4.62,26a82.36,82.36,0,0,0-.82,8.3c-.89,11.52-2.51,23.14,1.23,34.53,3,9.18,10.5,12.4,19.26,8.42,8-3.64,12.34-10.58,16.19-17.84,5.82-11,8.69-22.72,9.9-35.12a51.62,51.62,0,0,0-1.12-18.89c-1.15-4.3-3.25-7.93-7.2-10.13-2-1.12-1.87-2.21-.2-3.12,6.46-3.52,13-6.21,20.78-5.21,8.07,1,11.16,7.59,11.48,14.29.87,18.31-5.34,34.74-13.93,50.47a208,208,0,0,1-19,28c-9.31,12-30.48,19.18-44.31,13.31-8.34-3.54-12-11.25-13.74-19.83C1148.53,588.43,1150.4,577.61,1149.37,565.38ZM895.69,580.15c0,1.83-.06,3.66,0,5.49.43,12,10.76,18.45,21.38,12.91,8.5-4.43,14.89-11.17,21.61-17.59,13.37-12.78,24.23-27.79,36.44-41.6,2.3-2.6,1.75-3.88-1-5.05-7.65-3.23-15.11-6.94-23.2-9-12.71-3.26-24.71-2.29-34.77,7C902.27,545.18,895.79,561.33,895.69,580.15Z" transform="translate(-102.62 -165.46)"/><path className="cls-1" d="M942.69,282.31c0,18.33-.47,36.68.11,55,.85,26.87-16.48,44-39.85,49.92a136.23,136.23,0,0,1-37.29,4c-2.51-.06-3.74-.62-4.59-3.14-3.29-9.82-6.15-19.78-10-29.4-1.58-3.9,1.32-7.52,5.87-7.49,9.28.07,18.5-.1,27.66-2,4.66-1,8.56-2.62,9.85-7.6.83-3.2.82-5.61-4-5.55-18.66.25-37.33.1-56,.1-8.74,0-8.74,0-8.74-8.5,0-17.5-.88-35.05.26-52.48,1-15.58,3.75-31.4,16.18-42.77,9.46-8.66,21.45-12.79,33.82-15.15,20.56-3.93,41.41-1.52,62.13-2.06,4.14-.11,4.65,2.74,4.64,6.1Q942.65,251.81,942.69,282.31Zm-48-6.57c0-5.81,0-11.62,0-17.43,0-1.47.21-2.89-2.09-3.15-6.55-.74-14.64,4.41-17,10.77-3.26,8.89-1.48,18.27-2.91,27.33-.41,2.56,1.14,3,3.3,2.95,5-.09,10-.21,14.94,0,3.25.17,3.88-1.22,3.79-4.08C894.57,286.7,894.69,281.22,894.69,275.74Z" transform="translate(-102.62 -165.46)"/><path className="cls-3" d="M635.7,435c-4.52-2.51-9.12-.13-13.42.43a566,566,0,0,0-60.74,10.75,40,40,0,0,1-6.63,1.18c4.38-3.69,9.86-5.16,15-7.05,21.77-8,44.31-13.4,67-17.94,17.46-3.5,35.1-6.18,52.82-8.3,15.82-1.89,31.63-3.71,47.51-5,15.13-1.23,30.28-2,45.41-3.07,49-3.33,98.08-1.5,147.12-1.63,16.34,0,32.74,1.19,49.11,1.93,11.7.53,23.42,1.26,35.11,2,14.14.91,28.28,2,42.42,2.93,15.26,1,30.5,2.43,45.72,4,17.79,1.81,35.55,4,53.33,5.92,12.89,1.41,25.82,2.51,38.7,4.08,14.63,1.78,29.2,3.95,43.81,5.88,13.16,1.74,26.35,3.21,39.48,5.12,16.66,2.42,33.24,5.42,49.92,7.7,13.46,1.84,26.84,4.06,40.24,6.26,8.84,1.45,17.67,2.92,27.78,4.6-8.35,1.14-15.28-.74-22.28-1-4.73-.16-9.43-1.24-14.17-1.58-14.6-1-29.15-2.6-43.73-3.85q-13.53-1.17-27.1-2.15c-12-.85-24-1.48-35.92-2.94-2.78-.34-5.65,0-8.48.07-13.8-1.35-27.57-3.1-41.39-4-49.69-3.13-99.38-6.3-149.1-8.84q-101.81-5.18-203.75-5.88c-61-.32-121.91.79-182.71,5.72C656.33,431.23,645.78,431.77,635.7,435Z" transform="translate(-102.62 -165.46)"/><path className="cls-1" d="M1298.92,336.19h-50c-6.78,0-7.23-.44-7.23-7q0-12.49,0-25c0-6.43,1.52-8,7.81-8h55c2.15,0,4.64.45,4.18-3.07-1.33-10.06-3.36-19.83-11-27.4-6.16-6.15-13.92-8.63-22.26-9.42a47.28,47.28,0,0,1-7.28-1.22,5.5,5.5,0,0,1-4.52-5.71c0-9.5-.05-19,0-28.5,0-3.51,2.12-5.71,5.59-5.62,23.53.61,46.21,4.8,64,21.46,11.49,10.73,18.43,24.58,21.38,40.36,3.4,18.16,1.31,36.44,1.89,54.66.12,3.77-2.5,4.5-5.73,4.49C1333.59,336.16,1316.26,336.19,1298.92,336.19Z" transform="translate(-102.62 -165.46)"/><path className="cls-4" d="M635.7,435c10.09-3.26,20.63-3.79,31-4.63,60.8-4.93,121.74-6,182.71-5.72q101.94.54,203.75,5.88c49.72,2.53,99.41,5.7,149.1,8.84,13.83.87,27.6,2.62,41.39,4,5.92,1.8,12.13,1.78,18.18,2.78,10.78,1.78,21.6,3.29,32.41,4.86,9.85,1.43,19.73,2.68,29.56,4.22,13.83,2.17,27.63,4.56,41.45,6.79,9.62,1.55,19.26,3,28.87,4.73-7.07,1.21-14.06-.33-21-1-4.18-.43-8.48-.74-12.67-1.25-13.54-1.65-27.22-2-40.81-3.3q-25.55-2.37-51.13-4.09c-12.62-.85-25.22-2.09-37.85-3-14.62-1-29.22-2.1-43.85-3-10-.63-20-1.4-30.07-2-17-1-33.87-2.3-50.85-3.05-12.19-.53-24.37-1.37-36.56-2-14.35-.71-28.71-1.32-43.06-2-16.52-.79-33-1.22-49.55-2.09-11.11-.59-22.27.25-33.27-.95-11.8-1.28-23.54-.27-35.3-.82-42.4-2-84.83-.92-127.24-.78-12.9,0-25.87.28-38.77.92-14,.69-28,1.39-42.07,2-13.47.56-26.93,1.64-40.35,3-17.75,1.76-35.55,3.4-53.16,6.16-17.14,2.68-34.28,5.66-51.06,10.29-.2.05-.49-.23-1.62-.81C580.57,447.2,607.9,440.32,635.7,435Z" transform="translate(-102.62 -165.46)"/><path className="cls-2" d="M1325.91,599.28c16.09-21.59,30.51-43.09,38-68.49a124.09,124.09,0,0,0,3.72-17.18c.29-2,1-2.53,2.79-2.42,5.66.32,11.09,1.64,15.66,5s3,8,1.86,12.26c-2.88,10.56-9.16,19.45-14.73,28.65A378.53,378.53,0,0,1,1340,603.24c-18.62,22.36-39.21,42.76-64.59,57.55-11.42,6.65-23.48,11.24-37.32,10.58-12.53-.6-14.06-8.37-11.4-17.92a41.61,41.61,0,0,1,1.61-4.08c16.53,6.89,31.74,2.76,46.9-4.82,12.76-6.37,22.09-16.55,32-26.24,1.53-1.5,1.28-2.75.87-4.77-5.61-27.36-17.33-51.93-33.93-74.18-2.55-3.41-5-7.32-9.11-9.57-1.9-1-1.36-2.44.28-3.41,11.28-6.68,25.33-9.22,33.91,6,11.48,20.41,19.88,42.22,26.54,64.68A17.57,17.57,0,0,1,1325.91,599.28Z" transform="translate(-102.62 -165.46)"/><path className="cls-1" d="M1099.69,191.06v-6c0-10.29,3.59-14.92,13.66-18.19,18.22-5.91,34.72,7.57,34.25,25.46a25.76,25.76,0,0,1-16.12,23.46c-9.15,3.88-21.66,1.16-28.54-5.8a10,10,0,0,1-3.29-7.94C1099.83,198.4,1099.69,194.73,1099.69,191.06Z" transform="translate(-102.62 -165.46)"/><path className="cls-1" d="M1095.69,191.27a56.69,56.69,0,0,0,0,7.49c1.57,12-5.24,16-15.33,18.06-15,3-27.52-4.38-31.19-19.57-3.57-14.77,6.89-29.29,20.6-31.21,9-1.25,16.48.5,23.06,6.76a8.21,8.21,0,0,1,2.86,7C1095.53,183.6,1095.69,187.44,1095.69,191.27Z" transform="translate(-102.62 -165.46)"/><path className="cls-2" d="M523.37,435.34a202.27,202.27,0,0,0-15.48-41.62,169.08,169.08,0,0,0-23-34.09c-4-4.65-8.68-8.73-14-14.05,2.89,11.92,5.64,22.29,7.89,32.77,4.19,19.6,7.07,39.41,7.41,59.47.17,9.75.3,19.51-.71,29.32C484,481.43,481,495.2,475.24,508.3c-12.56,28.57-34,48.71-61,63.4a14.56,14.56,0,0,1-2.22,1.49,4.57,4.57,0,0,1-3.35,1.44,4.46,4.46,0,0,1-1.08.5,4.57,4.57,0,0,1-2.93,1.27,7.54,7.54,0,0,1-2.46,1.44c-9,3.49-17.9,7.16-27.23,9.78-14.79,4.16-29.71,7.31-45.1,7.61a153.6,153.6,0,0,1-42.53-5c-4.31-1.14-5.2-.48-5.16,4,.24,27.78.11,55.57.29,83.35a9.59,9.59,0,0,1-.18,2.05,5.66,5.66,0,0,1,.26,1.35,5.45,5.45,0,0,1,.28,1.32,5.64,5.64,0,0,1,.41,3.17,5.12,5.12,0,0,1,.38,1,7.6,7.6,0,0,1,.72.91,4.49,4.49,0,0,1,1.39.73,5.07,5.07,0,0,1,1.81.46h.14c.18,0,.34,0,.51,0h.15a5.25,5.25,0,0,1,1.69-.27c.12,0,.23,0,.35,0a5.68,5.68,0,0,1,.59,0,4.73,4.73,0,0,1,.54,0c.21,0,.42,0,.64,0a5.1,5.1,0,0,1,1,.09,7.73,7.73,0,0,1,.95-.07c13.23.22,26.31-1.19,39.42-2.95a317.77,317.77,0,0,0,44.55-9.19c22.86-6.49,44.77-15.31,65.05-27.88a198.58,198.58,0,0,0,47.41-40.63c12.63-14.9,22.73-31.28,29.23-49.6,6-17,8.47-35,9.36-53C530.27,481.68,529.23,458.32,523.37,435.34Z" transform="translate(-102.62 -165.46)"/><path className="cls-3" d="M282.23,672.41l-.05,1.48.18,3.54.41,6.32.47,1.11a5.88,5.88,0,0,0,2.4,3.08l4.15.66,3.41-.35Z" transform="translate(-102.62 -165.46)"/><path className="cls-1" d="M277.8,686.83a5.66,5.66,0,0,1,0-2.62,5.87,5.87,0,0,1-.1-2.36c-.36-1.19,0-2.51,0-3.71-.06-27.5-.14-55,.06-82.5,0-4.32-.91-5.7-5.45-5.56-12,.36-24,.2-36,.06-2.72,0-6.46.68-6.61-3.81-.16-4.8-.68-9.58-.89-14.34-.53-11.83-.51-23.68-1-35.52-.6-14.58-1.47-29.14-2-43.72-.72-19.7-1.79-39.37-3-59-.86-14-1.44-28.11-2-42.16-.63-15.56-1.15-31.11-2-46.66-.58-10,.1-20-.33-30-.21-4.84,2.08-5.26,5.67-4.66,10.34,1.75,20.85.56,31.22,1.82,2.73.33,3.33-.79,2.89-3.52-2.7-16.62-4.3-33.38-5.52-50.16-.89-12.15-.72-12.18-10.14-14-2.43-.47-4.89-.76-7.33-1.15-19-3.09-38.07-6.13-57.09-9.28-23.4-3.87-46.83-7.63-70.16-11.91-5.3-1-5.45.83-5.38,5,.53,29.11-.12,58.21.83,87.34.77,23.57.93,47.22-.63,70.83-.73,11.07.66,22.24.7,33.32.3,90.16.17,180.33.17,270.5l31,.32c2-.05,4-.15,6-.15,43.87,0,87.73-.08,131.6.1,2.23,0,4-.18,5.1-.92A5.31,5.31,0,0,1,277.8,686.83Z" transform="translate(-102.62 -165.46)"/><polygon className="cls-1" points="175.21 506.39 174.84 519.44 175.19 521.64 172.66 522.89 175.21 506.39"/></svg>